<?xml version="1.0" encoding="UTF-8"?>
<svg xmlns="http://www.w3.org/2000/svg" viewBox="0 0 512 512">
  <defs>
    <style>
      .cls-1 {
        fill: #fff;
      }

      .cls-2 {
        fill: #ea5514;
      }

      .cls-3 {
        fill: #601986;
        stroke: #231815;
        stroke-miterlimit: 10;
      }
    </style>
  </defs>
  <g id="_图层_1" data-name="图层 1">
    <rect class="cls-3" y="60.6" width="456.13" height="456.13"/>
  </g>
  <g id="_文字2" data-name="文字2">
    <g>
      <path class="cls-1" d="M186.8,313.28l20.16-92.36h15.28l20.16,92.36,13.95-92.36h21.04l-22.15,119.58h-22.93l-17.06-81.18-18.38,81.18h-22.93l-22.15-119.58h21.04l13.95,92.36Z"/>
      <path class="cls-1" d="M290.68,340.51v-119.58h21.04v119.58h-21.04ZM301.64,235.73v-14.8h58.14v14.8h-58.14ZM301.64,288.53v-14.8h52.61v14.8h-52.61ZM301.64,340.51v-14.8h58.14v14.8h-58.14Z"/>
      <path class="cls-1" d="M376.4,340.51v-119.58h21.04v119.58h-21.04ZM389.69,340.51v-14.8h26.47c4.8,0,8.49-.89,11.08-2.67,2.58-1.78,3.88-4.26,3.88-7.44v-15.63c0-4.55-1.46-8.07-4.38-10.57-2.92-2.49-6.81-3.74-11.68-3.74h-25.36v-14.8h25.36c4.43,0,7.86-1.12,10.3-3.37s3.65-5.43,3.65-9.54v-12.17c0-3.18-1.22-5.65-3.65-7.4-2.44-1.75-5.8-2.63-10.08-2.63h-25.58v-14.8h25.25c11.22,0,19.88,2.08,25.97,6.25,6.09,4.17,9.14,10.06,9.14,17.68v12.67c0,5.65-1.79,10.29-5.37,13.94-3.58,3.65-8.62,5.96-15.12,6.95,7.16.88,12.72,3.21,16.67,6.99,3.95,3.78,5.92,8.72,5.92,14.8v15.79c0,7.79-2.97,13.82-8.92,18.09s-14.38,6.42-25.31,6.42h-28.24Z"/>
      <path class="cls-1" d="M252.94,509.77l-32.34-119.58h21.93l21.38,91.79,21.38-91.79h21.93l-32.34,119.58h-21.93Z"/>
      <path class="cls-1" d="M341.32,390.19v119.58h-21.04v-119.58h21.04Z"/>
      <path class="cls-1" d="M363.24,509.77v-119.58h21.04v119.58h-21.04ZM376.64,509.77v-14.8h29.35c3.84,0,6.79-.85,8.86-2.55,2.07-1.7,3.1-4.11,3.1-7.24v-70.4c0-3.12-1.04-5.54-3.1-7.24-2.07-1.7-5.02-2.55-8.86-2.55h-29.35v-14.8h28.68c10.78,0,19.09,2.17,24.92,6.5,5.83,4.33,8.75,10.5,8.75,18.5v69.58c0,5.32-1.33,9.84-3.99,13.57s-6.5,6.57-11.52,8.51c-5.02,1.95-11.11,2.92-18.27,2.92h-28.57Z"/>
    </g>
    <path class="cls-2" d="M421.1,93.1h-56.39v-32h56.39V4.31h34.52v56.79h56.4v32h-56.4v56.79h-34.52v-56.79Z"/>
  </g>
</svg>